<?xml version="1.0" encoding="utf-8"?>
<!-- Generator: Adobe Illustrator 21.1.0, SVG Export Plug-In . SVG Version: 6.00 Build 0)  -->
<svg version="1.1" id="Calque_1" xmlns="http://www.w3.org/2000/svg" xmlns:xlink="http://www.w3.org/1999/xlink" x="0px" y="0px"
	 viewBox="0 0 151 87" style="enable-background:new 0 0 151 87;" xml:space="preserve">
<style type="text/css">
	.st0{fill:#B577AF;}
	.st1{fill:#838383;}
</style>
<g>
	<g>
		<path class="st0" d="M59.2,25.2L38.4,53.6h12.5L59.2,25.2z M57.1,73.7H45.1L48.2,63H31.3L14.2,86.6H0L63.6,0.2h15.2L57.1,73.7z"/>
		<path class="st0" d="M76,21.7h20.8L94,31.1h-9.9l-3.4,11.4h9.8l-2.7,9.2H78l-6.4,21.9H60.7L76,21.7z"/>
		<path class="st0" d="M100.1,21.7h11.5L99.3,63.8H111l-3.7,9.9H84.9L100.1,21.7z"/>
		<path class="st0" d="M146.6,21.7c3.4,0,5.1,2.9,4.2,5.9l-11.9,40.5c-1.3,4.3-4.8,5.5-8.4,5.5h-12.8c-3.6,0-6.4-2.6-5.1-7.1
			l11.7-39.8c0.8-3,3.2-5.1,6.7-5.1H146.6z M133.8,31.4l-9.6,32.3c-0.2,0.8,0.1,1.3,1,1.3h2.8c0.9,0,1.5-0.5,1.7-1.3l9.5-32.3
			c0.2-0.8-0.1-1.4-1.1-1.4h-2.7C134.3,30.1,134,30.7,133.8,31.4z"/>
	</g>
	<g>
		<path class="st1" d="M57.6,80.7c0,0.9-0.2,1.8-0.7,2.7s-1,1.6-1.8,2.2l1.3,1.3h-0.7l-1-1c-1,0.7-2.1,1-3.3,1h-0.2
			c-1.1,0-2.1-0.3-3.1-0.9c-0.9-0.6-1.7-1.3-2.2-2.3c-0.5-0.9-0.8-2-0.8-3c0-1.7,0.6-3.1,1.8-4.3s2.7-1.8,4.4-1.8
			c1.7,0,3.2,0.6,4.4,1.8C57,77.5,57.6,79,57.6,80.7z M51.4,86.4c1.1,0,2.1-0.3,3-0.9l-2.7-2.7h0.7l2.4,2.4c0.7-0.5,1.2-1.2,1.6-2
			s0.6-1.6,0.6-2.5c0-1.6-0.6-2.9-1.7-4c-1.1-1.1-2.4-1.7-4-1.7s-2.9,0.6-4,1.7c-1.1,1.1-1.7,2.5-1.7,4c0,1.6,0.6,2.9,1.7,4
			C48.5,85.8,49.9,86.4,51.4,86.4z"/>
		<path class="st1" d="M86,79.5h0.5v7.1H86v-1.4c-0.5,1.1-1.5,1.6-2.8,1.6c-0.9,0-1.6-0.3-2.2-0.9c-0.6-0.6-0.9-1.4-0.9-2.2v-4.2
			h0.5v4.2c0,0.7,0.3,1.4,0.8,1.9c0.5,0.5,1.1,0.8,1.9,0.8c0.7,0,1.4-0.3,1.9-0.8c0.6-0.5,0.8-1.2,0.8-1.9V79.5z"/>
		<path class="st1" d="M109.7,77.8c-0.3,0-0.5-0.1-0.5-0.4c0-0.3,0.2-0.4,0.5-0.4s0.5,0.1,0.5,0.4C110.2,77.6,110,77.8,109.7,77.8z
			 M109.9,79.5v7.1h-0.5v-7.1H109.9z"/>
		<path class="st1" d="M137.4,86.2v0.4h-4.9l4.1-6.7h-3.6v-0.4h4.5l-4.1,6.7H137.4z"/>
	</g>
</g>
</svg>
